<?xml version="1.0" standalone="no"?>
<!DOCTYPE svg PUBLIC "-//W3C//DTD SVG 20010904//EN"
 "http://www.w3.org/TR/2001/REC-SVG-20010904/DTD/svg10.dtd">
<svg version="1.0" xmlns="http://www.w3.org/2000/svg"
 width="906.000000pt" height="906.000000pt" viewBox="0 0 906.000000 906.000000"
 preserveAspectRatio="xMidYMid meet">
<metadata>
Created by potrace 1.14, written by Peter Selinger 2001-2017
</metadata>
<g transform="translate(0.000000,906.000000) scale(0.100000,-0.100000)"
fill="#000000" stroke="none">
<path d="M0 4530 l0 -4530 4530 0 4530 0 0 4530 0 4530 -4530 0 -4530 0 0
-4530z m2641 3133 c16 -10 29 -21 29 -25 0 -4 6 -8 14 -8 7 0 19 -13 26 -29 6
-16 25 -42 41 -58 16 -15 69 -68 117 -117 151 -154 214 -216 221 -216 4 0 15
-15 26 -32 19 -34 81 -97 135 -138 17 -13 30 -28 30 -35 0 -6 11 -18 25 -25
14 -7 25 -17 25 -22 0 -10 55 -68 65 -68 15 0 65 -42 60 -51 -4 -5 -1 -9 4 -9
6 0 31 -16 57 -35 25 -19 51 -35 58 -35 7 0 30 -13 51 -30 21 -16 44 -30 52
-30 7 0 16 -7 19 -15 4 -8 12 -15 20 -15 8 0 14 -4 14 -10 0 -5 11 -10 25 -10
14 0 25 -4 25 -8 0 -13 50 -33 62 -26 6 4 8 3 5 -3 -4 -6 12 -8 43 -5 33 3 50
1 50 -7 0 -6 9 -11 20 -11 11 0 19 5 18 11 -2 6 11 13 27 16 17 2 43 9 59 15
23 9 31 9 34 0 2 -7 7 -10 11 -8 4 3 34 7 66 11 33 4 77 11 97 16 21 5 52 10
70 10 18 0 87 1 153 3 66 1 125 -2 131 -6 7 -5 23 -3 39 4 21 9 28 9 35 -1 5
-9 20 -12 39 -9 17 2 31 2 31 -2 0 -4 17 -8 38 -8 57 -3 115 -11 132 -18 8 -4
33 -9 55 -10 22 -2 51 -6 65 -10 48 -13 181 -17 193 -5 6 6 19 11 28 11 21 0
89 30 113 50 10 8 33 30 52 48 19 17 41 32 50 32 16 0 64 46 64 61 0 5 6 9 13
9 7 0 31 19 53 43 22 23 53 54 69 69 36 33 65 61 108 106 18 18 83 86 145 149
61 64 112 120 112 125 0 4 6 8 14 8 8 0 16 4 18 9 4 13 83 107 130 155 21 21
38 40 38 43 0 2 13 16 29 31 16 15 42 43 58 62 15 20 35 35 43 35 8 0 18 4 22
9 4 6 11 0 17 -14 7 -17 10 -20 10 -8 1 11 6 15 15 12 17 -6 13 -40 -4 -36 -6
1 -9 -2 -5 -8 4 -6 -5 -31 -20 -56 -15 -25 -25 -47 -23 -50 2 -2 27 36 54 84
47 83 51 87 84 87 28 0 39 -6 57 -34 18 -26 23 -30 24 -15 0 10 5 4 11 -15 12
-42 38 -82 48 -76 10 6 23 -28 29 -75 1 -13 2 -13 11 0 5 8 10 11 11 5 4 -45
14 -80 40 -144 17 -40 44 -124 60 -185 47 -176 98 -359 133 -476 9 -30 30
-113 47 -185 17 -71 34 -139 39 -150 5 -11 12 -38 15 -60 13 -75 16 -87 30
-128 8 -23 15 -53 15 -67 0 -14 6 -34 14 -45 7 -11 16 -31 19 -45 10 -46 15
-65 30 -110 23 -67 54 -190 61 -235 13 -84 19 -110 28 -121 4 -7 15 -36 24
-65 8 -30 19 -70 25 -89 6 -19 15 -54 20 -77 6 -24 14 -43 18 -43 4 0 8 -6 8
-12 3 -42 8 -68 14 -68 5 0 11 -27 24 -115 7 -44 18 -85 24 -85 4 0 8 -6 9
-12 1 -7 5 -33 8 -58 4 -25 9 -49 13 -55 4 -5 9 -30 10 -55 1 -25 9 -70 16
-100 8 -30 17 -79 21 -107 4 -29 11 -53 16 -53 5 0 7 -9 3 -19 -7 -24 22 -61
48 -61 26 0 11 -20 -16 -21 -15 0 -9 -5 18 -14 33 -10 34 -22 2 -16 -5 1 -6
-3 -3 -8 4 -5 -4 -12 -16 -15 -13 -2 4 -3 37 0 238 16 255 16 255 6 0 -21 -45
-53 -130 -94 -47 -23 -92 -43 -100 -44 -9 -2 -31 -10 -50 -18 -29 -12 -31 -15
-12 -16 29 0 28 -13 -3 -30 l-26 -14 23 -13 c22 -12 22 -13 3 -18 -11 -4 -31
-23 -44 -43 -14 -20 -35 -53 -47 -72 -19 -29 -47 -93 -59 -135 -10 -36 -28
-75 -36 -75 -5 0 -9 -13 -9 -30 0 -16 -7 -55 -15 -87 -17 -63 -18 -200 -2
-210 6 -4 7 -1 2 7 -6 9 -4 11 4 6 7 -5 10 -14 7 -22 -4 -9 2 -14 17 -15 13 0
16 -3 8 -6 -11 -5 -11 -7 0 -14 9 -6 -1 -9 -31 -10 -51 -1 -54 -1 100 -29 204
-37 297 -66 277 -87 -13 -12 -120 -22 -314 -29 -154 -6 -190 -10 -186 -21 3
-7 14 -13 24 -13 26 0 24 -16 -2 -23 -16 -4 -20 -11 -17 -25 5 -19 -21 -52
-42 -52 -6 0 -10 -6 -10 -13 0 -7 -15 -29 -32 -49 -66 -73 -78 -89 -78 -107 0
-11 -7 -26 -15 -34 -21 -21 -42 -110 -27 -115 7 -2 12 -17 12 -34 0 -30 56
-148 70 -148 4 0 13 -13 20 -30 7 -17 16 -30 20 -30 8 0 34 -51 32 -62 -1 -4
7 -12 18 -18 11 -6 20 -17 20 -25 0 -7 6 -20 13 -27 6 -7 21 -30 31 -51 11
-20 23 -37 27 -37 5 0 6 -7 3 -15 -3 -8 2 -29 11 -47 25 -51 31 -123 11 -143
-9 -9 -16 -30 -16 -46 0 -17 -5 -39 -10 -50 -13 -22 -61 -49 -90 -49 -32 0
-91 34 -137 79 -23 22 -43 36 -45 31 -4 -13 -103 12 -153 37 -41 21 -81 57
-168 153 -31 33 -53 50 -63 46 -8 -3 -13 -2 -10 2 8 13 -18 37 -44 40 -13 1
-27 8 -31 14 -11 18 -167 13 -213 -7 -22 -9 -49 -19 -60 -21 -12 -2 -22 -8
-24 -14 -2 -5 -10 -10 -18 -10 -19 0 -56 -21 -71 -42 -7 -9 -31 -19 -53 -23
-22 -4 -40 -11 -40 -16 0 -5 -4 -9 -9 -9 -22 0 -141 -62 -136 -71 6 -8 -8 -13
-28 -10 -13 2 -67 -29 -67 -39 0 -6 -8 -10 -18 -10 -9 0 -40 -20 -67 -44 -27
-25 -51 -43 -53 -41 -2 2 -24 -5 -49 -16 -24 -10 -53 -19 -64 -19 -10 0 -19
-4 -19 -9 0 -10 -52 -22 -92 -22 -15 0 -40 -6 -55 -14 -15 -8 -45 -15 -65 -15
-20 0 -59 -4 -85 -10 -26 -5 -77 -11 -113 -13 -36 -3 -72 -7 -80 -10 -42 -15
-79 -20 -245 -34 -95 -7 -108 -7 -275 0 -58 2 -128 1 -157 -3 -28 -3 -61 -3
-72 2 -12 4 -46 8 -76 9 -30 1 -55 5 -55 9 0 10 -121 30 -184 30 -31 0 -56 4
-56 9 0 4 -53 11 -117 14 -163 8 -207 14 -211 26 -2 6 -19 11 -38 11 -19 0
-34 5 -34 10 0 6 -15 10 -34 10 -19 0 -38 5 -41 11 -4 6 -13 8 -21 5 -7 -3
-18 4 -24 14 -6 11 -14 19 -18 18 -4 -1 -16 2 -27 6 -11 4 -32 12 -47 18 -16
6 -28 14 -28 19 0 5 -3 8 -7 7 -15 -4 -58 15 -90 38 -17 13 -54 29 -81 35 -28
5 -53 17 -56 25 -3 8 -12 14 -21 14 -8 0 -14 5 -12 11 1 6 -18 19 -43 28 -25
9 -48 20 -51 24 -3 5 -9 8 -13 8 -19 -3 -26 0 -26 12 0 15 -61 47 -90 47 -10
0 -23 7 -28 15 -12 23 -112 46 -206 48 -72 1 -86 -2 -117 -23 -19 -13 -35 -28
-37 -32 -2 -4 -11 -8 -20 -8 -23 -1 -45 -20 -58 -50 -32 -72 -147 -165 -242
-196 -26 -8 -53 -17 -60 -19 -7 -3 -14 -3 -16 -2 -2 1 -21 -15 -44 -35 -53
-48 -103 -58 -152 -32 -46 25 -72 76 -67 131 4 35 2 40 -9 28 -8 -7 -14 -19
-14 -26 0 -7 -3 -10 -6 -6 -11 11 39 187 84 292 25 57 96 166 114 173 4 2 8 8
8 13 0 5 16 29 35 55 19 25 35 52 35 59 0 7 6 15 13 17 15 6 19 145 4 173 -6
11 -10 26 -9 33 2 6 -2 12 -8 12 -6 0 -14 8 -17 18 -6 15 -29 39 -100 102 -12
11 -27 20 -32 20 -5 0 -12 8 -15 18 -3 9 -19 23 -36 30 -23 11 -30 20 -30 43
0 16 -4 29 -10 29 -5 0 -10 4 -10 9 0 6 15 11 33 13 17 2 -48 6 -146 10 -186
8 -307 23 -307 40 0 19 98 51 268 87 170 36 174 38 142 51 -29 12 -31 15 -16
26 10 7 20 27 23 46 2 18 9 35 14 36 17 7 9 120 -12 179 -12 32 -26 61 -31 64
-5 3 -9 9 -8 13 3 12 -12 66 -18 66 -4 0 -15 18 -26 40 -10 21 -24 41 -31 44
-7 2 -28 35 -46 73 -19 37 -38 71 -43 74 -4 4 0 12 10 18 17 11 17 11 -4 6
-17 -5 -24 -1 -31 17 -7 19 -5 24 13 29 20 5 20 6 -4 13 -42 14 -222 107 -257
133 -72 55 -34 64 162 38 111 -15 177 -18 121 -6 -17 3 -29 9 -28 14 1 4 2 21
2 37 0 20 5 30 15 30 8 0 15 6 15 14 0 8 5 16 11 18 5 2 13 22 16 46 3 23 9
42 13 42 5 0 11 21 14 48 11 82 12 92 19 99 4 3 7 20 7 38 0 17 4 35 10 41 5
5 12 36 16 69 4 33 13 66 21 73 8 8 11 23 8 34 -4 10 -2 24 3 31 5 7 12 32 16
57 3 25 17 81 30 125 24 77 38 137 51 219 4 26 9 35 15 27 4 -8 10 15 15 55
10 100 14 124 22 169 3 22 6 48 4 58 -1 9 3 17 8 17 6 0 10 3 9 8 -5 18 15
148 23 153 9 5 31 107 31 141 -1 9 6 22 14 29 8 6 14 23 14 38 0 15 4 31 9 36
6 6 15 42 20 80 6 39 15 86 21 105 5 19 26 91 46 160 35 122 58 226 71 323 3
26 9 47 13 47 5 0 16 26 25 58 10 31 30 98 46 147 15 50 37 128 49 175 11 47
25 94 30 105 5 11 14 39 20 62 6 23 15 45 20 48 5 3 16 29 24 58 17 59 75 127
78 91 1 -10 4 6 7 36 6 51 8 55 34 58 16 2 36 -3 46 -12 10 -9 21 -13 25 -9 4
4 5 1 2 -7 -3 -8 3 -28 15 -45 l21 -30 -6 40 c-4 28 -1 44 11 57 20 22 18 22
54 1z m-908 -4230 c-7 -2 -19 -2 -25 0 -7 3 -2 5 12 5 14 0 19 -2 13 -5z"/>
<path d="M2616 7497 c3 -10 9 -15 12 -12 3 3 0 11 -7 18 -10 9 -11 8 -5 -6z"/>
<path d="M2438 6874 c-29 -15 -24 -3 -111 -294 -62 -205 -125 -453 -143 -555
-41 -244 -7 -613 70 -751 l24 -43 -53 -106 c-119 -238 -182 -481 -201 -777
l-7 -107 64 -7 c97 -11 130 -52 119 -149 -3 -31 -19 -44 -66 -56 -24 -6 -44
-12 -44 -13 11 -41 39 -104 43 -95 3 8 6 1 6 -16 1 -23 4 -27 11 -15 5 8 10
28 10 43 0 24 3 26 18 18 22 -12 46 -105 37 -147 -4 -22 -3 -24 3 -9 7 16 14
3 37 -65 15 -47 32 -91 37 -97 6 -7 8 -20 4 -28 -3 -9 -2 -13 4 -10 6 3 11 3
11 -2 1 -4 3 -21 5 -37 4 -40 17 -46 106 -46 98 0 125 -11 144 -56 26 -62 3
-110 -73 -148 -17 -9 -39 -13 -47 -10 -11 4 -16 0 -16 -15 0 -12 5 -21 10 -21
6 0 10 -8 10 -17 0 -22 61 -114 115 -175 l39 -44 64 23 c156 57 251 10 221
-109 -15 -55 -27 -40 121 -147 421 -302 895 -441 1509 -442 437 0 714 47 1056
183 185 73 444 217 560 311 28 22 53 43 57 47 4 3 1 27 -7 53 -9 32 -11 56 -5
71 21 56 93 72 171 37 48 -22 50 -21 94 48 15 25 31 49 36 55 54 65 107 147
96 151 -6 2 -24 6 -39 9 -15 3 -39 17 -55 30 -23 20 -27 31 -28 76 0 46 3 55
28 74 25 18 40 21 110 18 88 -2 120 10 132 50 4 13 13 30 20 38 7 8 16 38 19
65 3 28 3 41 0 30 -3 -11 -10 -24 -15 -29 -5 -5 -4 5 1 24 12 40 19 48 29 31
6 -8 10 -2 15 20 3 19 1 38 -5 46 -7 7 -9 16 -5 20 3 3 6 0 6 -8 0 -11 2 -11
10 1 5 8 9 24 9 35 l0 20 -10 -20 c-8 -17 -9 -17 -4 5 2 14 5 32 6 40 0 10 3
9 10 -5 7 -16 8 -14 8 15 -1 19 0 40 1 45 1 6 2 13 1 17 0 5 4 7 11 5 8 -1 12
9 12 26 -1 26 0 27 55 28 l56 1 -60 15 c-33 8 -70 24 -82 35 -43 40 -20 135
36 157 14 5 50 13 79 16 34 5 56 13 59 22 10 26 -16 279 -42 413 -39 199 -118
419 -192 534 l-19 30 42 111 c62 161 86 290 86 455 0 168 -15 243 -127 650
-46 168 -87 323 -91 345 -14 76 -87 118 -141 80 -39 -27 -37 -61 17 -287 80
-331 91 -400 97 -614 4 -147 2 -214 -10 -291 -18 -110 -57 -245 -72 -249 -6
-1 -28 19 -50 45 -79 92 -254 209 -470 312 -135 64 -442 192 -462 192 -7 0 -9
5 -5 11 56 76 143 180 262 315 80 90 159 180 176 200 100 115 98 221 -4 221
-28 0 -46 -12 -110 -73 -126 -121 -501 -510 -540 -561 l-23 -30 -86 12 c-48 6
-89 15 -92 20 -3 4 -44 14 -91 21 -47 7 -110 17 -140 22 -163 28 -551 27 -762
-1 -98 -14 -253 -46 -393 -82 -21 -6 -51 25 -460 457 -98 105 -188 195 -199
202 -31 18 -70 15 -100 -8 -21 -16 -26 -29 -26 -62 0 -53 22 -86 159 -241 58
-66 163 -187 232 -270 l126 -150 -106 -42 c-263 -103 -501 -222 -635 -318 -33
-24 -101 -80 -151 -124 -103 -92 -95 -93 -134 23 -32 94 -42 194 -42 400 1
261 46 542 126 798 31 97 31 112 0 142 -27 28 -57 31 -97 9z m1745 -981 c-7
-2 -19 -2 -25 0 -7 3 -2 5 12 5 14 0 19 -2 13 -5z m774 1 c-3 -3 -12 -4 -19
-1 -8 3 -5 6 6 6 11 1 17 -2 13 -5z m-1067 -45 c0 -5 -4 -9 -10 -9 -5 0 -10 7
-10 16 0 8 5 12 10 9 6 -3 10 -10 10 -16z m-1106 -1088 c23 -16 69 -42 103
-59 34 -17 104 -56 156 -86 53 -31 142 -80 199 -109 57 -30 186 -99 288 -154
102 -54 244 -130 315 -167 159 -83 284 -153 309 -171 17 -13 14 -20 -49 -125
-85 -141 -167 -244 -246 -310 -81 -68 -96 -77 -181 -112 -95 -39 -238 -49
-337 -23 -152 39 -272 128 -385 284 -105 144 -157 268 -181 429 -18 117 -19
180 -4 286 l12 81 -68 110 c-37 61 -72 116 -78 123 -13 16 -1 29 33 35 38 7
69 -2 114 -32z m3602 20 c8 -4 -5 -35 -37 -91 -103 -180 -93 -141 -94 -365 -2
-184 -4 -207 -28 -292 -30 -106 -94 -239 -144 -300 -20 -25 -32 -47 -27 -54 4
-7 3 -10 -2 -6 -5 3 -45 -30 -88 -73 -44 -44 -104 -92 -135 -108 -157 -81
-350 -87 -496 -14 -71 35 -164 102 -210 153 -78 85 -261 360 -251 377 2 4 26
18 53 31 26 13 73 38 103 56 30 18 181 98 335 177 154 80 307 160 340 178 33
18 94 51 135 73 41 22 156 83 255 134 99 52 194 105 210 118 28 22 49 24 81 6z
m-3663 -745 c7 4 8 3 4 -2 -5 -5 -10 -7 -12 -4 -2 3 -11 -4 -19 -15 -9 -11
-16 -15 -16 -8 0 6 5 15 10 18 6 3 11 18 11 33 l2 27 4 -28 c3 -17 9 -25 16
-21z m3633 -51 c-47 -159 -157 -333 -278 -437 -119 -101 -316 -208 -452 -244
-77 -21 -160 -17 -266 12 -52 14 -102 30 -110 35 -12 7 104 5 218 -3 7 -1 11
-7 8 -15 -4 -10 8 -13 52 -12 47 1 52 3 27 9 l-30 8 38 2 c20 1 40 3 45 4 40
10 100 19 115 17 9 -1 17 3 17 8 0 6 6 11 14 11 8 0 16 3 18 8 10 24 61 50 91
46 22 -2 28 -1 17 6 -12 8 -12 10 3 16 9 3 15 10 12 15 -5 8 35 35 45 30 2 -1
6 3 9 10 2 8 -1 9 -10 3 -12 -7 -12 -5 0 9 7 9 19 17 25 17 6 0 4 -5 -4 -11
-12 -9 -12 -10 3 -5 10 3 24 6 30 6 7 1 1 7 -12 14 -20 11 -21 14 -6 20 9 3
22 3 28 -1 6 -4 8 0 4 10 -6 15 13 39 29 36 21 -4 35 2 29 11 -4 6 -11 8 -16
5 -5 -4 -9 1 -9 10 0 9 6 15 13 12 6 -2 18 3 25 12 12 14 13 14 8 -1 -3 -10
-2 -19 2 -22 4 -3 8 11 9 30 1 31 -1 33 -16 22 -14 -12 -14 -11 -3 4 8 9 19
15 26 12 8 -3 20 2 28 10 12 11 18 12 27 3 9 -9 11 -8 6 6 -4 10 -2 17 4 17 6
0 11 7 11 16 0 8 4 13 9 10 5 -3 15 2 22 12 13 15 12 16 -3 3 -26 -20 -22 -6
12 41 17 22 30 45 30 50 0 5 7 16 15 24 17 17 19 11 6 -14 -6 -12 -4 -22 7
-32 14 -13 15 -12 8 5 -4 11 -4 16 0 12 11 -10 36 52 27 66 -4 7 -10 2 -14
-13 -6 -23 -7 -23 -8 -3 -1 27 18 40 31 22 7 -10 8 -8 5 8 -3 12 1 27 9 34 7
6 17 27 20 48 4 20 9 30 11 24 3 -7 -3 -37 -11 -68z m-3580 -19 c0 -14 -5 -21
-9 -17 -4 4 -5 15 -1 24 9 24 12 21 10 -7z m1499 -26 c4 -6 11 -8 16 -5 16 11
10 -4 -34 -78 -148 -251 -290 -415 -414 -480 -163 -85 -300 -105 -449 -66 -43
11 -87 22 -97 24 -96 21 -397 229 -370 256 11 11 43 1 43 -13 0 -6 -6 -5 -15
2 -9 8 -15 9 -15 2 0 -23 24 -25 38 -4 8 12 19 22 24 22 5 0 0 -10 -12 -22
-11 -12 -20 -27 -20 -32 0 -8 3 -8 8 -1 4 6 18 12 32 13 14 0 20 -2 14 -6 -16
-10 -9 -41 13 -57 28 -21 31 -6 3 15 -14 11 -20 20 -14 20 17 0 47 -38 39 -50
-5 -9 -1 -10 16 -5 16 4 20 3 11 -3 -11 -7 -8 -14 15 -29 40 -29 119 -56 134
-48 8 5 10 4 5 -3 -4 -7 -2 -12 4 -12 6 0 8 -6 4 -12 -6 -10 -4 -10 7 0 15 14
53 17 45 3 -6 -9 135 -30 253 -38 55 -3 76 -1 82 9 7 10 9 9 9 -4 0 -11 6 -15
20 -11 11 3 20 9 20 14 0 5 12 7 28 4 25 -5 25 -5 5 4 -30 14 -29 25 2 19 13
-3 22 -2 20 2 -3 4 5 10 16 13 12 3 18 10 14 16 -3 7 2 11 14 11 11 0 23 5 26
10 3 6 16 10 29 10 24 0 29 21 11 50 -8 13 -6 13 10 0 20 -17 25 -17 35 0 4 6
17 12 28 13 25 1 25 2 12 27 -8 15 -6 17 8 14 28 -7 46 10 34 32 -8 14 -6 21
5 30 9 6 17 23 19 38 2 24 1 26 -14 14 -15 -12 -16 -11 -3 4 15 20 35 14 27
-8 -11 -30 14 -12 27 19 8 17 26 47 41 64 16 18 24 38 20 44 -4 7 -3 9 4 5 6
-3 13 3 17 14 3 11 10 20 15 20 5 0 12 9 15 20 9 27 39 25 54 -2 9 -17 10 -18
5 -3 -15 45 -14 61 5 93 21 32 44 41 56 22z m-1535 -10 c0 -5 -5 -10 -11 -10
-5 0 -7 5 -4 10 3 6 8 10 11 10 2 0 4 -4 4 -10z m18 -59 c1 -21 6 -49 12 -62
7 -19 8 -14 4 21 -4 33 -3 41 5 30 6 -8 11 -23 11 -33 0 -10 11 -29 25 -43 14
-14 25 -31 25 -39 0 -7 3 -15 8 -17 4 -1 14 -16 22 -32 16 -30 32 -36 39 -15
2 7 -1 9 -8 5 -6 -4 -11 -2 -11 3 0 16 27 13 33 -3 3 -8 -1 -17 -9 -20 -18 -7
-18 -21 -1 -38 11 -10 11 -16 3 -24 -8 -8 -17 -4 -31 14 -10 14 -13 22 -7 18
19 -11 13 16 -7 42 -23 26 -36 29 -26 5 4 -13 3 -15 -5 -7 -6 6 -13 25 -15 43
-4 31 -29 66 -49 66 -11 0 -47 111 -38 120 13 12 19 3 20 -34z m73 -8 c-12
-20 -14 -14 -5 12 4 9 9 14 11 11 3 -2 0 -13 -6 -23z m-17 -28 c5 -22 4 -26
-4 -15 -5 8 -10 24 -10 34 0 26 6 18 14 -19z m37 -18 c-10 -9 -11 -8 -5 6 3
10 9 15 12 12 3 -3 0 -11 -7 -18z m29 -21 c0 -2 -7 -7 -16 -10 -8 -3 -12 -2
-9 4 6 10 25 14 25 6z m2004 -22 c5 -14 4 -15 -9 -4 -17 14 -19 20 -6 20 5 0
12 -7 15 -16z m1283 -16 c-3 -7 -5 -2 -5 12 0 14 2 19 5 13 2 -7 2 -19 0 -25z
m623 2 c0 -5 -5 -10 -11 -10 -5 0 -7 5 -4 10 3 6 8 10 11 10 2 0 4 -4 4 -10z
m-3866 -41 c-3 -5 -10 -7 -15 -3 -5 3 -7 10 -3 15 3 5 10 7 15 3 5 -3 7 -10 3
-15z m2024 -37 c2 -7 -1 -12 -8 -12 -6 0 -8 -4 -5 -10 3 -5 2 -10 -3 -10 -10
0 -22 23 -22 40 0 12 33 5 38 -8z m-291 -57 c71 -21 113 -70 113 -131 0 -56
-28 -113 -76 -152 -39 -32 -129 -62 -185 -62 -46 1 -129 30 -167 60 -37 30
-82 113 -82 152 0 58 40 108 106 132 54 20 226 20 291 1z m319 -22 c0 14 -4
23 -8 21 -4 -2 -9 0 -13 6 -3 5 1 10 9 10 18 0 40 -36 31 -50 -3 -6 3 -10 14
-10 12 0 21 -6 21 -14 0 -8 6 -16 14 -19 14 -6 19 -57 6 -57 -5 0 -7 11 -6 25
3 20 0 24 -18 21 -27 -5 -54 20 -28 27 13 4 12 5 -5 6 -19 1 -63 47 -63 67 0
4 11 -7 24 -25 23 -31 24 -31 22 -8z m-1986 13 c-10 -13 -40 -12 -40 1 0 3 7
3 15 0 8 -4 17 -2 20 3 4 6 9 10 12 10 3 0 0 -6 -7 -14z m947 -51 c0 -8 -4
-12 -9 -9 -5 3 -6 10 -3 15 9 13 12 11 12 -6z m-875 -27 c-7 -7 -12 -8 -12 -2
0 6 3 14 7 17 3 4 9 5 12 2 2 -3 -1 -11 -7 -17z m34 -35 c-7 -7 -26 7 -26 19
0 6 6 6 15 -2 9 -7 13 -15 11 -17z m39 -53 c3 -6 -1 -7 -9 -4 -18 7 -21 14 -7
14 6 0 13 -4 16 -10z m2170 -81 c-10 -15 -25 -10 -19 6 4 8 10 12 15 9 5 -3 7
-10 4 -15z m-669 -307 c43 -27 137 -84 207 -127 189 -115 211 -141 166 -199
-43 -55 -102 -32 -367 142 l-114 75 -26 -21 c-63 -48 -380 -232 -401 -232 -35
0 -62 19 -77 55 -23 56 -23 55 181 180 187 115 299 175 326 175 14 0 61 -22
105 -48z"/>
<path d="M5966 3494 c-5 -14 -4 -15 9 -4 17 14 19 20 6 20 -5 0 -12 -7 -15
-16z"/>
<path d="M5638 3333 c7 -3 16 -2 19 1 4 3 -2 6 -13 5 -11 0 -14 -3 -6 -6z"/>
<path d="M4130 3769 c0 -5 5 -7 10 -4 6 3 10 8 10 11 0 2 -4 4 -10 4 -5 0 -10
-5 -10 -11z"/>
<path d="M2680 6750 c0 -11 4 -20 10 -20 5 0 17 -14 26 -32 9 -17 20 -36 25
-42 5 -6 18 -22 30 -36 20 -24 20 -24 -1 10 -11 19 -33 59 -48 88 -27 55 -42
66 -42 32z"/>
<path d="M6304 6735 c-9 -29 -9 -33 3 -24 11 9 12 8 7 -4 -8 -23 6 -43 18 -26
8 11 9 10 4 -3 -3 -10 -1 -20 3 -22 5 -3 6 -18 4 -33 -4 -22 -2 -25 6 -13 9
12 11 11 11 -8 0 -12 4 -30 9 -40 16 -32 33 -87 34 -107 1 -11 7 -26 13 -33 8
-7 11 -26 7 -47 -4 -22 -2 -35 5 -35 8 0 9 -8 2 -26 -15 -39 -11 -53 6 -19
l14 30 -5 -28 c-4 -20 -2 -27 6 -22 8 6 9 -2 4 -25 -6 -25 -4 -31 6 -25 9 6
11 3 6 -8 -3 -9 1 -37 11 -62 14 -38 14 -47 3 -57 -11 -11 -13 -10 -8 4 3 10
2 20 -3 23 -6 4 -10 -15 -10 -44 0 -31 4 -51 11 -51 7 0 9 10 7 25 -3 14 -1
25 3 25 11 0 10 9 19 -155 l8 -140 -3 165 c-4 184 -37 379 -95 560 -16 52 -35
122 -41 155 -19 110 -44 137 -65 70z"/>
<path d="M6277 6683 c-7 -11 11 -53 22 -53 7 0 21 23 21 35 0 9 -39 24 -43 18z"/>
<path d="M6229 6613 c-7 -10 -9 -15 -5 -11 5 4 16 2 25 -5 14 -10 14 -10 4 4
-7 9 -10 19 -6 22 3 4 4 7 1 7 -3 0 -12 -8 -19 -17z"/>
<path d="M2790 6582 c0 -5 9 -17 20 -27 12 -11 18 -25 15 -34 -3 -8 -3 -12 1
-8 4 4 14 1 23 -6 14 -11 15 -10 1 8 -36 49 -60 76 -60 67z"/>
<path d="M2825 6479 c-11 -16 -1 -19 13 -3 7 8 8 14 3 14 -5 0 -13 -5 -16 -11z"/>
<path d="M2837 6456 c-4 -10 -1 -13 9 -9 7 3 14 -1 14 -7 0 -9 7 -7 20 5 23
21 19 35 -5 15 -10 -8 -15 -9 -15 -1 0 16 -17 14 -23 -3z"/>
<path d="M2903 6442 c-7 -4 -9 -13 -4 -21 6 -9 10 -7 14 8 3 12 4 21 4 21 -1
0 -7 -4 -14 -8z"/>
<path d="M6079 6433 c-13 -16 -12 -17 4 -4 9 7 17 15 17 17 0 8 -8 3 -21 -13z"/>
<path d="M2920 6426 c0 -2 7 -9 15 -16 13 -11 14 -10 9 4 -5 14 -24 23 -24 12z"/>
<path d="M6042 6387 c-12 -13 -22 -27 -22 -31 0 -13 43 -2 48 13 3 8 0 11 -7
7 -15 -9 -14 7 1 22 7 7 10 12 7 12 -3 0 -15 -10 -27 -23z"/>
<path d="M2937 6370 c10 -11 25 -20 34 -20 12 0 16 -8 13 -35 -1 -19 2 -37 7
-40 5 -4 6 0 3 8 -3 8 2 21 10 30 14 13 13 16 -3 31 -10 9 -22 16 -28 16 -6 0
-16 7 -23 15 -7 8 -16 15 -21 15 -5 0 -1 -9 8 -20z"/>
<path d="M5979 6313 c-13 -16 -12 -17 3 -5 14 11 18 10 27 -5 6 -10 11 -13 11
-7 0 6 -6 17 -14 23 -10 9 -17 7 -27 -6z"/>
<path d="M3025 6280 c-3 -6 1 -7 10 -4 9 4 15 3 14 -2 -4 -25 2 -54 12 -54 6
0 8 7 5 16 -3 9 -2 12 5 9 6 -4 8 -14 5 -22 -3 -8 2 -26 12 -41 9 -14 16 -29
15 -32 -1 -3 8 -4 20 -2 18 2 23 -2 22 -20 -4 -59 -37 -77 -57 -30 -7 15 -13
29 -15 31 -1 2 -9 -4 -18 -13 -9 -9 -12 -16 -6 -16 6 0 8 -7 5 -15 -4 -10 0
-15 15 -15 12 0 21 -6 21 -14 0 -19 -23 -33 -28 -18 -2 7 -8 12 -13 12 -6 0
-8 -4 -5 -8 3 -5 -1 -9 -9 -9 -8 0 -15 9 -15 19 0 15 -3 16 -13 7 -16 -15 -20
-56 -7 -64 6 -4 8 -11 4 -16 -4 -6 -11 -6 -19 1 -8 7 -28 8 -50 4 -22 -4 -32
-10 -25 -14 8 -5 7 -9 -5 -14 -9 -3 -14 -10 -11 -14 6 -11 -25 -9 -43 3 -11 6
-13 4 -8 -9 6 -14 2 -16 -22 -13 -19 3 -31 0 -35 -8 -7 -19 -51 -46 -89 -55
l-32 -8 37 -1 c20 -1 39 -7 41 -13 4 -10 6 -10 6 0 1 13 41 17 41 4 0 -13 -40
-33 -52 -26 -6 4 -17 -1 -24 -11 -10 -14 -22 -16 -51 -12 -26 5 -33 3 -23 -3
12 -8 12 -10 -5 -11 -11 -1 -24 -1 -30 0 -5 1 -2 -5 8 -12 25 -20 21 -30 -9
-24 -20 3 -27 -1 -34 -19 -10 -24 -2 -63 9 -47 7 11 221 133 232 133 5 0 30
13 57 29 27 16 65 34 85 42 20 7 37 17 37 21 0 4 8 8 18 8 17 0 38 10 104 47
48 27 142 93 135 94 -35 6 -52 1 -51 -14 3 -27 -20 -20 -40 14 l-18 31 22 -12
c18 -9 24 -9 30 0 4 7 13 9 19 6 6 -4 11 -2 11 4 0 8 -9 10 -26 6 -23 -6 -26
-5 -21 14 6 24 -13 56 -82 138 -45 53 -55 60 -66 42z m78 -74 c4 -10 1 -13 -8
-9 -8 3 -12 9 -9 14 7 12 11 11 17 -5z m-8 -226 c-3 -5 -11 -10 -16 -10 -6 0
-7 5 -4 10 3 6 11 10 16 10 6 0 7 -4 4 -10z m-158 -46 c-3 -3 -12 -4 -19 -1
-8 3 -5 6 6 6 11 1 17 -2 13 -5z m-117 -74 c0 -5 -2 -10 -4 -10 -3 0 -8 5 -11
10 -3 6 -1 10 4 10 6 0 11 -4 11 -10z"/>
<path d="M5950 6280 c0 -5 5 -10 11 -10 5 0 7 5 4 10 -3 6 -8 10 -11 10 -2 0
-4 -4 -4 -10z"/>
<path d="M5895 6221 c-15 -17 -15 -19 -1 -17 22 3 40 22 28 30 -5 3 -17 -3
-27 -13z"/>
<path d="M6431 6194 c0 -11 3 -14 6 -6 3 7 2 16 -1 19 -3 4 -6 -2 -5 -13z"/>
<path d="M5903 6193 c-23 -4 -74 -51 -72 -66 0 -5 -8 -16 -19 -25 -10 -9 -22
-27 -26 -38 -8 -27 19 -45 149 -100 50 -20 94 -41 100 -46 5 -4 17 -8 27 -8
10 0 18 -4 18 -9 0 -9 68 -40 102 -46 10 -2 30 -15 45 -29 28 -26 45 -20 36
14 -3 11 -11 16 -23 13 -14 -4 -17 0 -13 20 4 22 2 24 -24 20 -26 -5 -27 -4
-9 10 19 14 19 15 -5 27 -13 7 -28 19 -32 26 -10 17 -54 18 -60 2 -3 -9 -11
-6 -24 10 -11 12 -28 22 -37 22 -9 0 -16 4 -16 10 0 5 -7 7 -15 4 -10 -4 -15
0 -15 11 0 12 -8 16 -27 15 -52 -4 -60 -1 -40 14 13 10 17 24 15 48 l-4 33
-13 -27 c-13 -26 -40 -39 -42 -20 0 4 -2 15 -4 25 -2 9 1 17 6 17 4 0 13 9 19
20 9 16 8 19 -6 13 -12 -4 -15 -3 -10 5 4 7 13 12 21 12 7 0 15 7 19 15 3 8 4
14 3 14 -1 -1 -12 -4 -24 -6z"/>
<path d="M2542 6165 c0 -16 2 -22 5 -12 2 9 2 23 0 30 -3 6 -5 -1 -5 -18z"/>
<path d="M2532 6093 c-2 -20 -6 -41 -9 -46 -3 -6 -1 -7 5 -3 7 4 12 2 12 -3 0
-6 -4 -11 -10 -11 -11 0 -14 -182 -4 -279 6 -52 9 -59 21 -49 11 9 13 23 9 53
-5 29 -3 36 4 25 8 -11 9 -3 6 30 -3 24 -1 49 4 55 5 5 5 44 1 85 l-8 75 -2
-80 c-1 -56 -4 -75 -11 -65 -6 9 -8 65 -5 133 3 64 1 117 -3 117 -4 0 -9 -16
-10 -37z"/>
<path d="M6293 5903 c9 -2 23 -2 30 0 6 3 -1 5 -18 5 -16 0 -22 -2 -12 -5z"/>
<path d="M6260 5880 c0 -5 18 -10 40 -10 33 0 40 -3 40 -19 0 -11 5 -23 10
-26 6 -3 10 1 10 9 0 20 56 22 63 4 2 -7 6 -1 9 14 5 25 3 27 -26 22 -24 -4
-28 -3 -16 5 11 8 -3 11 -57 11 -42 0 -73 -4 -73 -10z"/>
<path d="M6470 5880 c-12 -7 -12 -11 -2 -20 6 -5 10 -7 7 -4 -3 4 0 13 6 21
13 15 10 16 -11 3z"/>
<path d="M6288 5817 c3 -14 1 -18 -6 -13 -7 4 -12 3 -12 -2 0 -4 19 -19 43
-31 23 -12 65 -35 94 -51 56 -30 71 -29 48 4 -8 11 -15 33 -15 48 0 15 -4 30
-10 33 -5 3 -10 1 -10 -5 0 -17 -53 -7 -68 13 -13 17 -38 14 -27 -4 3 -5 -1
-6 -9 -3 -8 3 -13 11 -10 18 3 7 -1 13 -9 13 -9 0 -12 -7 -9 -20z"/>
<path d="M6476 5694 c-8 -21 -8 -24 3 -24 5 0 11 9 14 20 6 24 -8 27 -17 4z"/>
<path d="M2547 5683 c-4 -3 -7 -13 -7 -22 1 -13 3 -13 11 2 11 19 8 33 -4 20z"/>
<path d="M7463 4343 c9 -2 23 -2 30 0 6 3 -1 5 -18 5 -16 0 -22 -2 -12 -5z"/>
<path d="M2192 3860 c0 -14 2 -19 5 -12 2 6 2 18 0 25 -3 6 -5 1 -5 -13z"/>
<path d="M2191 3744 c0 -11 3 -14 6 -6 3 7 2 16 -1 19 -3 4 -6 -2 -5 -13z"/>
<path d="M6698 3503 c7 -3 16 -2 19 1 4 3 -2 6 -13 5 -11 0 -14 -3 -6 -6z"/>
<path d="M1888 3443 c7 -3 16 -2 19 1 4 3 -2 6 -13 5 -11 0 -14 -3 -6 -6z"/>
<path d="M1808 3433 c6 -2 18 -2 25 0 6 3 1 5 -13 5 -14 0 -19 -2 -12 -5z"/>
<path d="M7155 2395 c22 -39 72 -100 55 -67 -6 13 -18 31 -26 40 -7 9 -21 26
-30 37 -13 17 -13 16 1 -10z"/>
</g>
</svg>
